<?xml version="1.0" standalone="no"?>
<!DOCTYPE svg PUBLIC "-//W3C//DTD SVG 20010904//EN"
 "http://www.w3.org/TR/2001/REC-SVG-20010904/DTD/svg10.dtd">
<svg version="1.0" xmlns="http://www.w3.org/2000/svg"
 width="923.000000pt" height="405.000000pt" viewBox="0 0 923.000000 405.000000"
 preserveAspectRatio="xMidYMid meet">

<g transform="translate(0.000000,405.000000) scale(0.100000,-0.100000)"
fill="#000000" stroke="none">
<path d="M5055 2516 c-86 -38 -119 -139 -72 -220 57 -100 207 -102 267 -4 29
48 27 123 -4 169 -42 62 -123 85 -191 55z"/>
<path d="M2615 2351 c-71 -32 -115 -104 -115 -188 0 -32 -2 -33 -40 -33 l-40
0 0 -115 0 -115 40 0 40 0 0 -120 0 -120 159 0 160 0 -6 38 c-13 81 -63 145
-143 181 l-45 21 133 0 132 0 0 -120 0 -120 71 0 c40 0 90 6 113 12 77 23 136
109 136 197 0 31 0 31 55 31 l55 0 0 -120 0 -120 355 0 355 0 0 120 0 120 105
0 106 0 -31 -38 c-36 -45 -70 -129 -70 -172 l0 -30 155 0 154 0 3 118 3 117
38 3 37 3 0 -120 0 -121 161 0 161 0 -7 43 c-10 60 -41 127 -77 165 l-32 32
112 0 112 0 0 -120 0 -120 155 0 155 0 0 121 0 120 53 -3 52 -3 3 -117 3 -118
154 0 155 0 0 115 0 115 163 0 c90 0 205 3 255 6 l92 7 0 -122 0 -121 155 0
155 0 0 120 0 120 40 0 40 0 0 -120 0 -121 158 3 157 3 3 118 3 117 34 0 35 0
0 115 0 115 -40 0 c-37 0 -40 3 -59 46 -40 88 -110 151 -200 178 -95 28 -91
33 -91 -105 l0 -120 -37 3 -38 3 -3 119 -3 118 -41 -6 c-104 -17 -197 -86
-243 -182 l-23 -48 -56 -1 -56 -1 0 118 0 118 -355 0 -354 0 -3 -114 -3 -115
-312 -3 c-172 -3 -313 -3 -313 -1 0 2 13 21 30 41 34 44 55 91 65 150 l7 42
-161 0 -161 0 0 -120 0 -120 -35 0 -35 0 0 120 0 120 -160 0 -160 0 0 -23 c0
-45 28 -117 65 -167 l37 -51 -106 3 -106 3 0 118 0 117 -355 0 -355 0 0 -118
0 -118 -55 0 -55 0 0 118 0 118 -160 0 -159 0 5 -32 c16 -89 77 -163 159 -192
38 -14 34 -14 -97 -15 l-138 -1 0 120 0 120 -82 0 c-59 0 -95 -6 -123 -19z"/>
</g>
</svg>
